<svg width="251" height="300" viewBox="0 0 251 300" fill="none" xmlns="http://www.w3.org/2000/svg">
<path d="M93.9058 116.906C92.5208 115.798 88.0886 115.576 81.4404 123.554M137.95 118.568C139.612 116.629 144.432 114.911 150.416 123.554" stroke="#1B2118"/>
<path d="M113.85 152.078V164.543C113.296 165.928 110.028 169.695 101.385 173.684C92.7423 177.673 103.878 181.44 110.526 182.826" stroke="#1B2118"/>
<path d="M104.709 203.601C110.526 208.864 125.318 215.069 137.95 197.784" stroke="#1B2118"/>
<path d="M181.994 160.388C182.825 179.501 204.432 163.712 201.939 142.936C199.446 122.161 181.163 139.612 181.163 141.274C158.559 143.934 126.316 97.5069 113.019 73.9612C95.0137 85.0416 59.1689 114.681 59.8337 147.922" stroke="#1B2118"/>
<path d="M59.8337 147.091V147.922" stroke="#1B2118"/>
<path d="M59.8337 147.091C68.1439 185.319 68.975 236.842 121.33 242.659C143.213 244.321 177.839 223.546 181.994 159.557" stroke="#1B2118"/>
<path d="M181.994 159.557V160.388" stroke="#1B2118"/>
<path d="M150.415 233.518C146.889 243.845 144.724 262.476 160.824 266.759M250.139 300C250.139 280.055 207.756 270.083 166.205 267.59C164.218 267.471 162.43 267.186 160.824 266.759M108.864 240.997C110.666 248.607 114.032 258.331 93.9058 265.898M0.831024 300C0.831022 296.676 1.16333 280.72 59.0027 273.407C75.028 271.381 86.1923 268.798 93.9058 265.898M160.824 266.759C151.26 275.049 124.488 286.483 93.9058 265.898" stroke="#1B2118"/>
<path d="M137.119 41.5512C172.022 41.5512 233.85 61.3296 201.939 140.443M188.643 169.529C188.099 198.331 183.824 251.097 171.113 232.995M170.36 231.856C170.614 232.263 170.865 232.642 171.113 232.995M171.113 232.995C162.552 249.513 145.429 271.247 148.753 239.335" stroke="#1B2118"/>
<path d="M181.994 160.388C180.665 201.607 160.388 225.762 150.416 232.687C143.103 273.906 161.219 250.416 171.191 233.518C183.823 249.474 188.089 196.953 188.643 168.698C185.319 169.529 183.657 168.698 181.994 160.388Z" fill="#1B2118" stroke="#1B2118"/>
<path d="M137.119 41.5513C102.216 12.4654 33.4071 36.5651 47.3683 142.936C48.4763 151.524 55.0137 171.357 65.6509 178.67" stroke="#1B2118"/>
<path d="M188.05 143.455C191.57 140.845 198.007 138.444 195.593 149.718C192.576 163.811 186.541 163.028 188.05 157.548" stroke="#1B2118"/>
<path d="M95.8988 137.119C95.8988 139.116 95.4481 140.899 94.7447 142.165C94.0319 143.448 93.1271 144.098 92.2437 144.098C91.3603 144.098 90.4554 143.448 89.7426 142.165C89.0393 140.899 88.5886 139.116 88.5886 137.119C88.5886 135.122 89.0393 133.339 89.7426 132.073C90.4554 130.79 91.3603 130.14 92.2437 130.14C93.1271 130.14 94.0319 130.79 94.7447 132.073C95.4481 133.339 95.8988 135.122 95.8988 137.119Z" fill="#1B2118" stroke="#1B2118"/>
<path d="M145.76 137.119C145.76 139.116 145.31 140.899 144.606 142.165C143.893 143.448 142.989 144.098 142.105 144.098C141.222 144.098 140.317 143.448 139.604 142.165C138.901 140.899 138.45 139.116 138.45 137.119C138.45 135.122 138.901 133.339 139.604 132.073C140.317 130.79 141.222 130.14 142.105 130.14C142.989 130.14 143.893 130.79 144.606 132.073C145.31 133.339 145.76 135.122 145.76 137.119Z" fill="#1B2118" stroke="#1B2118"/>
<path d="M93.5239 244.661C89.6428 254.769 80.3174 233.149 79.7783 219.391C83.5516 225.006 94.4942 237.08 108.078 240.449L109.695 248.03C97.405 260.16 94.3325 252.242 93.5239 244.661Z" fill="#1B2118" stroke="#1B2118"/>
<path d="M201.939 141.274C233.186 61.4959 171.745 41.5512 137.119 41.5512C87.2576 8.97507 58.1717 55.1247 49.8615 82.2715C37.2299 141.44 55.1247 171.191 65.651 178.67L59.8338 147.922C58.5042 115.346 94.7369 85.0416 113.019 73.9612C148.255 134.46 173.13 144.044 181.163 141.274C194.46 125.983 200.554 134.903 201.939 141.274Z" fill="#1B2118" stroke="#1B2118"/>
</svg>
