<svg width="251" height="301" viewBox="0 0 251 301" fill="none" xmlns="http://www.w3.org/2000/svg">
<path d="M94.0415 114.081C92.6545 112.972 88.2159 112.75 81.5581 120.739M133.156 114.081C134.821 112.14 142.976 112.084 148.968 120.739" stroke="#1B2118"/>
<path d="M114.015 152.364V164.847C113.46 166.234 110.187 170.007 101.531 174.002C92.8763 177.996 104.028 181.769 110.686 183.156" stroke="#1B2118"/>
<path d="M104.86 195.64C117.344 198.968 123.169 198.968 138.15 189.814C136.208 213.949 126.831 248.902 104.86 195.64Z" stroke="#1B2118"/>
<path d="M182.257 160.686C183.09 179.827 204.727 164.015 202.231 143.209C199.734 122.404 181.425 139.88 181.425 141.545C158.789 144.208 126.498 97.7143 113.183 74.1346C95.151 85.2309 59.2544 114.914 59.9202 148.203" stroke="#1B2118"/>
<path d="M59.9202 147.37V148.203" stroke="#1B2118"/>
<path d="M59.9202 147.37C68.2424 185.653 69.0747 237.251 121.505 243.076C143.42 244.741 178.096 223.935 182.257 159.854" stroke="#1B2118"/>
<path d="M182.257 159.854V160.686" stroke="#1B2118"/>
<path d="M150.633 233.922C147.101 244.264 144.933 262.922 161.056 267.211M250.5 300.5C250.5 280.527 208.056 270.54 166.445 268.043C164.455 267.924 162.665 267.639 161.056 267.211M109.021 241.412C110.826 249.033 114.197 258.77 94.0415 266.348M0.832214 300.5C0.832213 297.171 1.165 281.192 59.0879 273.869C75.1364 271.84 86.3168 269.253 94.0415 266.348M161.056 267.211C151.479 275.513 124.667 286.963 94.0415 266.348" stroke="#1B2118"/>
<path d="M137.317 41.6777C172.271 41.6777 234.188 61.4847 202.231 140.713M188.915 169.841C188.371 198.684 184.09 251.526 171.36 233.398M170.606 232.257C170.861 232.665 171.112 233.045 171.36 233.398M171.36 233.398C162.787 249.94 145.639 271.705 148.968 239.748" stroke="#1B2118"/>
<path d="M182.257 160.686C180.926 201.964 160.62 226.154 150.633 233.09C143.309 274.368 161.452 250.844 171.439 233.922C184.088 249.901 188.36 197.304 188.915 169.008C185.586 169.841 183.922 169.008 182.257 160.686Z" fill="#1B2118" stroke="#1B2118"/>
<path d="M137.317 41.6778C102.364 12.5498 33.4554 36.6844 47.4368 143.209C48.5464 151.809 55.0933 171.671 65.7457 178.995" stroke="#1B2118"/>
<path d="M188.321 143.729C191.847 141.115 198.293 138.711 195.876 150.001C192.854 164.114 186.811 163.33 188.321 157.842" stroke="#1B2118"/>
<path d="M96.0381 137.384C96.0381 139.383 95.5867 141.169 94.8823 142.437C94.1684 143.722 93.262 144.374 92.377 144.374C91.492 144.374 90.5856 143.722 89.8717 142.437C89.1672 141.169 88.7159 139.383 88.7159 137.384C88.7159 135.384 89.1672 133.598 89.8717 132.33C90.5856 131.045 91.492 130.394 92.377 130.394C93.262 130.394 94.1684 131.045 94.8823 132.33C95.5867 133.598 96.0381 135.384 96.0381 137.384Z" fill="#1B2118" stroke="#1B2118"/>
<path d="M145.972 137.384C145.972 139.383 145.52 141.169 144.816 142.437C144.102 143.722 143.196 144.374 142.311 144.374C141.426 144.374 140.519 143.722 139.805 142.437C139.101 141.169 138.649 139.383 138.649 137.384C138.649 135.384 139.101 133.598 139.805 132.33C140.519 131.045 141.426 130.394 142.311 130.394C143.196 130.394 144.102 131.045 144.816 132.33C145.52 133.598 145.972 135.384 145.972 137.384Z" fill="#1B2118" stroke="#1B2118"/>
<path d="M93.6591 245.081C89.7723 255.204 80.4334 233.552 79.8936 219.774C83.6724 225.398 94.6308 237.489 108.234 240.863L109.854 248.455C97.5458 260.602 94.4688 252.673 93.6591 245.081Z" fill="#1B2118" stroke="#1B2118"/>
<path d="M202.231 141.545C233.523 61.6512 171.993 41.6777 137.317 41.6777C87.3837 9.05449 58.2558 55.2708 49.9335 82.4568C37.2837 141.711 55.2043 171.505 65.7458 178.995L59.9203 148.203C58.5887 115.579 94.8738 85.2309 113.183 74.1346C148.469 134.721 173.38 144.319 181.425 141.545C194.741 126.232 200.844 135.164 202.231 141.545Z" fill="#1B2118" stroke="#1B2118"/>
<path d="M205.698 51.6661C203.982 51.4901 199.932 64.9576 198.744 64.9576C197.555 64.9576 188.443 63.7253 188.091 64.9576C187.739 66.1899 198.744 74.1119 198.744 75.2562C198.744 76.4005 196.191 87.4034 196.939 88.2396C197.687 89.0758 204.862 77.3688 205.698 77.5888C206.535 77.8089 217.363 88.8558 218.023 88.2396C218.684 87.6235 212.037 76.4886 212.037 75.2562C212.037 74.0239 223.966 65.9258 224.67 64.9576C225.374 63.9893 213.798 64.9576 212.037 64.9576C210.276 64.9576 207.415 51.8422 205.698 51.6661Z" fill="#FEFED2" stroke="#FEFED2" stroke-linecap="round"/>
<path d="M53.2625 43.3422C42.61 44.008 38.8372 54.7159 38.2824 59.9867C33.853 41.6363 23.0588 37.3687 17.4743 37.467C17.2009 37.4873 16.9243 37.5039 16.6445 37.5166C16.9058 37.4891 17.183 37.4721 17.4743 37.467C31.5146 36.4226 37.194 25.482 38.2824 20.0399C38.9482 36.6844 48.5465 42.51 53.2625 43.3422Z" fill="#82BBF2"/>
<path d="M38.2824 59.9867C38.8372 54.7159 42.61 44.008 53.2625 43.3422C48.5465 42.51 38.9482 36.6844 38.2824 20.0399C37.1728 25.588 31.2917 36.8508 16.6445 37.5166C21.9153 36.9618 33.6219 40.6791 38.2824 59.9867Z" stroke="#82BBF2"/>
<path d="M30.3378 191.361C36.8525 191.488 43.3191 191.528 49.7667 191.93" stroke="#EC7E5C" stroke-width="3" stroke-linecap="round"/>
<path d="M36.2185 221.211C41.4482 218.181 46.1186 214.377 50.824 211.129" stroke="#EC7E5C" stroke-width="3" stroke-linecap="round"/>
<path d="M57.654 226.194C56.4125 230.048 55.4364 233.775 54.5805 237.685" stroke="#EC7E5C" stroke-width="3" stroke-linecap="round"/>
</svg>
